:version 1.10
:name ASF
:units
  mass 1
  length 1
  angle deg
:documentation
  ASF file generated by Kaydara
:root
  axis xyz
  order  tx ty tz rx ry rz
  position 0 0 0
  orientation 0 0 0
:bonedata
  begin
    id 1
    name RightUpLegDummy
    direction -1 2.30186e-007 8.31532e-007
    length 4.46685
    axis 0 0 0 xyz
  end
  begin
    id 2
    name RightUpLeg
    direction -2.30187e-007 -1 1.24343e-010
    length 16.4045
    axis -3.49089 -0.000906625 0.000286804 xyz
    dof rx ry rz
  end
  begin
    id 3
    name RightLeg
    direction -2.30181e-007 -1 -4.17157e-009
    length 17.5097
    axis 3.68512 0.0193738 -0.131023 xyz
    dof rx ry rz
  end
  begin
    id 4
    name RightFoot
    direction 8.31421e-007 -4.51202e-011 1
    length 6.49508
    axis 4.81691e-005 -0.120479 -0.188788 xyz
    dof rx ry rz
  end
  begin
    id 5
    name RightToes
    direction 0.00124746 -0.014064 0.9999
    length 3.85082
    axis 0.000481921 0.542163 -0.142578 xyz
    dof rx ry rz
  end
  begin
    id 6
    name SpineDummy
    direction 0.0717043 0.9409 -0.331007
    length 10.0032
    axis 0 0 0 xyz
  end
  begin
    id 7
    name Spine
    direction 2.30186e-007 1 4.58806e-011
    length 9.84055
    axis -0.001389 0.000121418 2.40972e-006 xyz
    dof rx ry rz
  end
  begin
    id 8
    name Spine1
    direction 0 0 0
    length 0
    axis -0.001389 0.000121451 1.30017e-006 xyz
    dof rx ry rz
  end
  begin
    id 9
    name HEadDummy
    direction -0.00347485 0.950688 -0.310128
    length 8.00997
    axis -0.001389 0.000121451 1.30017e-006 xyz
  end
  begin
    id 10
    name HEad
    direction -0.0222688 0.980941 0.193023
    length 5.12695
    axis -0.001389 0.000121451 1.30017e-006 xyz
    dof rx ry rz
  end
  begin
    id 11
    name LeftShoulder1Dummy
    direction 0.988871 0.146793 -0.0242004
    length 3.5792
    axis -0.001389 0.000121451 1.30017e-006 xyz
  end
  begin
    id 12
    name LeftShoulder1
    direction 0.993832 0.108932 0.020779
    length 4.16823
    axis -0.001389 0.000121451 1.30017e-006 xyz
    dof rx ry rz
  end
  begin
    id 13
    name LeftArm
    direction 1 3.44807e-006 -8.31404e-007
    length 9.91437
    axis -23.1894 0.134784 0.967509 xyz
    dof rx ry rz
  end
  begin
    id 14
    name LeftForeArm
    direction 1 3.44842e-006 -8.31581e-007
    length 9.08575
    axis -9.91835 -0.06569 -0.177793 xyz
    dof rx ry rz
  end
  begin
    id 15
    name LeftHand
    direction 0.992938 -0.0411636 0.11126
    length 5.32135
    axis -0.00960232 -0.00340091 0.185173 xyz
    dof rx ry rz
  end
  begin
    id 16
    name RightShoulderDummy
    direction -0.988871 0.146793 -0.0241962
    length 3.5792
    axis -0.001389 0.000121451 1.30017e-006 xyz
  end
  begin
    id 17
    name RightShoulder
    direction -0.993832 0.108933 0.0207785
    length 4.16823
    axis 0.215806 0.000203643 -0.0068026 xyz
    dof rx ry rz
  end
  begin
    id 18
    name RightArm
    direction -1 3.90912e-006 8.31284e-007
    length 9.91437
    axis -23.2009 -0.134239 -0.964101 xyz
    dof rx ry rz
  end
  begin
    id 19
    name RightForeArm
    direction -1 3.90882e-006 8.31502e-007
    length 9.08575
    axis -9.92322 0.0658061 0.178867 xyz
    dof rx ry rz
  end
  begin
    id 20
    name RightHand
    direction -0.992843 -0.0414603 0.112003
    length 5.28593
    axis -0.00960638 0.00330671 -0.185228 xyz
    dof rx ry rz
  end
  begin
    id 21
    name LeftUpLegDummy
    direction 1 -2.30186e-007 -8.31532e-007
    length 4.46685
    axis 0 0 0 xyz
  end
  begin
    id 22
    name LeftUpLeg
    direction -2.30187e-007 -1 6.00931e-010
    length 16.4045
    axis -3.48766 0.00143442 -0.000524262 xyz
    dof rx ry rz
  end
  begin
    id 23
    name LeftLeg
    direction -2.30187e-007 -1 1.6669e-009
    length 17.5097
    axis 3.68178 -0.00654042 -0.000285133 xyz
    dof rx ry rz
  end
  begin
    id 24
    name LeftFoot
    direction 8.31532e-007 -4.54478e-011 1
    length 6.49508
    axis 1.87233e-006 4.66016e-005 -8.6538e-006 xyz
    dof rx ry rz
  end
  begin
    id 25
    name LeftToes
    direction 0.00818058 -0.00485161 0.999955
    length 3.85048
    axis 1.06247e-005 4.65869e-005 -8.65513e-006 xyz
    dof rx ry rz
  end
:hierarchy
  begin
    root RightUpLegDummy SpineDummy LeftUpLegDummy
    RightUpLegDummy RightUpLeg
    RightUpLeg RightLeg
    RightLeg RightFoot
    RightFoot RightToes
    SpineDummy Spine
    Spine Spine1
    Spine1 HEadDummy LeftShoulder1Dummy RightShoulderDummy
    HEadDummy HEad
    LeftShoulder1Dummy LeftShoulder1
    LeftShoulder1 LeftArm
    LeftArm LeftForeArm
    LeftForeArm LeftHand
    RightShoulderDummy RightShoulder
    RightShoulder RightArm
    RightArm RightForeArm
    RightForeArm RightHand
    LeftUpLegDummy LeftUpLeg
    LeftUpLeg LeftLeg
    LeftLeg LeftFoot
    LeftFoot LeftToes
  end

:SAMPLES-PER-SECOND 30
:FULLY-SPECIFIED
:DEGREES
79
root  -0.275358 33.1729 2.04506 -176.085 15.2487 178.003
RightUpLeg  -23.7751 -5.78639 -5.76549
RightLeg  34.6032 3.02356 1.79554
RightFoot  -4.57022 -0.0216122 -0.164079
RightToes  -40.0544 -0.218918 -0.315429
Spine  6.4912 -2.99046 -1.61397
Spine1  11.7876 -5.33894 -4.73847
HEad  23.4548 -34.3245 27.6341
LeftShoulder1  0 -2.42657e-020 -4.95415e-022
LeftArm  -22.9839 0.463084 -84.4382
LeftForeArm  60.2861 -17.6555 -3.16609
LeftHand  0.681558 -11.3902 -7.20051
RightShoulder  0 2.42657e-020 1.07489e-018
RightArm  -11.5696 2.25391 92.489
RightForeArm  61.0496 19.6158 3.55027
RightHand  -1.39992 27.2248 -5.40769
LeftUpLeg  -6.11306 15.2053 -0.50622
LeftLeg  13.5579 -2.92549 -0.510662
LeftFoot  -1.34268 -0.00174279 -0.00990648
LeftToes  -12.7625 2.37847e-007 4.89147e-008
80
root  0.0174156 33.1011 1.99901 -175.844 16.6062 178.042
RightUpLeg  -24.8378 -7.88627 -7.21588
RightLeg  33.8835 1.37784 0.788533
RightFoot  -3.91854 -0.0117544 0.0339506
RightToes  -38.8625 -0.20946 -0.308607
Spine  6.7633 -3.14742 -1.50432
Spine1  12.1857 -5.78248 -4.39915
HEad  22.9849 -34.5801 28.2031
LeftShoulder1  0 -2.42657e-020 -4.95415e-022
LeftArm  -18.7263 -1.97869 -85.5469
LeftForeArm  59.8908 -17.9098 -3.21635
LeftHand  0.720439 -11.5258 -7.50387
RightShoulder  0 2.42657e-020 1.07489e-018
RightArm  -7.98245 2.78485 93.1146
RightForeArm  58.44 21.3612 3.90716
RightHand  -1.21223 27.1771 -4.64317
LeftUpLeg  -6.40877 16.0586 -0.0118678
LeftLeg  14.4567 -2.49347 -0.476047
LeftFoot  -1.88685 -0.00144688 -0.0336202
LeftToes  -13.7686 2.37847e-007 4.89147e-008
81
root  0.36268 33.0205 1.93363 -175.674 18.0627 177.919
RightUpLeg  -25.737 -9.77985 -9.00629
RightLeg  32.4303 0.454107 0.2376
RightFoot  -3.53154 -0.00734927 0.139183
RightToes  -38.2459 -0.204624 -0.305
Spine  6.99052 -3.28467 -1.35213
Spine1  12.5255 -6.22056 -3.93728
HEad  22.6797 -34.6674 28.311
LeftShoulder1  0 -2.42657e-020 -4.95415e-022
LeftArm  -15.6402 -4.11378 -86.5769
LeftForeArm  59.1795 -18.2323 -3.28077
LeftHand  0.758151 -11.4969 -7.89521
RightShoulder  0 2.42657e-020 1.07489e-018
RightArm  -5.13972 3.29586 93.4045
RightForeArm  56.3009 22.7906 4.20579
RightHand  -1.15531 26.9693 -4.44623
LeftUpLeg  -6.51168 17.5677 0.466182
LeftLeg  15.2276 -2.59726 -0.53216
LeftFoot  -2.41369 -0.0021436 -0.0506386
LeftToes  -14.8201 2.37847e-007 4.89147e-008
82
root  0.771761 32.9357 1.84256 -175.504 19.6704 177.725
RightUpLeg  -26.5468 -11.0306 -10.9182
RightLeg  30.3291 -0.523036 -0.271544
RightFoot  -2.52137 -0.00336038 0.224913
RightToes  -37.323 -0.197459 -0.299506
Spine  7.18585 -3.36983 -1.18154
Spine1  12.8277 -6.55178 -3.45879
HEad  22.7051 -34.2898 27.9075
LeftShoulder1  0 -2.42657e-020 -4.95415e-022
LeftArm  -13.8771 -5.86731 -87.4019
LeftForeArm  57.9654 -18.7371 -3.38228
LeftHand  0.759042 -11.4673 -7.92353
RightShoulder  0 2.42657e-020 1.07489e-018
RightArm  -2.4772 3.82925 93.3651
RightForeArm  54.8537 24.0148 4.46574
RightHand  -1.0043 26.902 -3.82813
LeftUpLeg  -6.37818 18.8904 0.967277
LeftLeg  15.7198 -2.3745 -0.508037
LeftFoot  -2.80113 -0.00214781 -0.0878562
LeftToes  -16.0308 2.37847e-007 4.89147e-008
83
root  1.25431 32.844 1.72491 -175.341 21.2866 177.459
RightUpLeg  -27.3094 -12.737 -12.6287
RightLeg  27.5961 -1.70141 -0.760619
RightFoot  -0.415644 -0.000499924 0.240127
RightToes  -37.5144 -0.198938 -0.300655
Spine  7.37724 -3.44945 -0.991469
Spine1  13.1327 -6.85024 -3.01047
HEad  22.802 -33.5372 27.2803
LeftShoulder1  0 -2.42657e-020 -4.95415e-022
LeftArm  -13.411 -7.16214 -88.0097
LeftForeArm  56.8773 -19.3971 -3.51479
LeftHand  0.755951 -11.4541 -7.90162
RightShoulder  0 2.42657e-020 1.07489e-018
RightArm  -0.669045 4.39544 93.187
RightForeArm  54.2667 24.9984 4.67709
RightHand  -0.875368 27.1088 -3.26055
LeftUpLeg  -6.03563 19.992 1.49989
LeftLeg  15.9938 -1.93308 -0.423684
LeftFoot  -3.09473 -0.003851 -0.142569
LeftToes  -17.0459 2.37847e-007 4.89147e-008
84
root  1.82515 32.7252 1.59183 -175.23 23.0207 177.092
RightUpLeg  -28.2625 -14.5712 -13.9572
RightLeg  24.8995 -3.3651 -1.30925
RightFoot  0.0554094 6.01501e-005 0.250011
RightToes  -36.5881 -0.191817 -0.295049
Spine  7.57123 -3.48639 -0.785033
Spine1  13.4575 -7.06649 -2.53338
HEad  23.0728 -32.5409 26.4575
LeftShoulder1  0 -2.42657e-020 -4.95415e-022
LeftArm  -13.6215 -8.12308 -88.5516
LeftForeArm  55.7511 -19.9678 -3.6306
LeftHand  0.687389 -11.1189 -7.42771
RightShoulder  0 2.42657e-020 1.07489e-018
RightArm  0.371516 4.96924 92.83
RightForeArm  53.5434 25.7948 4.85128
RightHand  -0.785279 27.1335 -2.88402
LeftUpLeg  -5.53125 21.0454 2.09723
LeftLeg  16.2505 -1.36822 -0.306919
LeftFoot  -3.38775 -0.00617875 -0.208945
LeftToes  -18.5099 2.37847e-007 4.89147e-008
85
root  2.4671 32.5738 1.45248 -175.134 24.5781 176.639
RightUpLeg  -29.5136 -16.887 -14.7358
RightLeg  22.6541 -5.36312 -1.84217
RightFoot  -0.564882 -0.00240616 0.332592
RightToes  -34.5002 -0.176106 -0.281995
Spine  7.81111 -3.56081 -0.573153
Spine1  13.8607 -7.37103 -2.04093
HEad  23.4063 -31.695 25.7823
LeftShoulder1  0 -2.42657e-020 -4.95415e-022
LeftArm  -14.2581 -8.98006 -89.0524
LeftForeArm  55.0669 -20.2285 -3.68412
LeftHand  0.612485 -10.8634 -6.80893
RightShoulder  0 2.42657e-020 1.07489e-018
RightArm  0.541067 5.49852 92.3083
RightForeArm  52.6959 26.7026 5.05282
RightHand  -0.698744 27.0408 -2.53589
LeftUpLeg  -5.16711 21.3373 2.65414
LeftLeg  16.8227 -0.227472 -0.0550754
LeftFoot  -3.79281 -0.010609 -0.320419
LeftToes  -19.871 2.37847e-007 4.89147e-008
86
root  3.21426 32.3847 1.33755 -175.041 26.5072 176.123
RightUpLeg  -31.4311 -19.3201 -14.5939
RightLeg  21.2514 -6.87462 -2.17087
RightFoot  -0.565892 -9.72855e-005 0.358291
RightToes  -32.3016 -0.160087 -0.26764
Spine  8.09624 -3.53362 -0.380595
Spine1  14.3404 -7.462 -1.61094
HEad  23.4402 -30.8099 25.3177
LeftShoulder1  0 -2.42657e-020 -4.95415e-022
LeftArm  -15.1523 -9.76056 -89.4671
LeftForeArm  54.8781 -20.29 -3.69684
LeftHand  0.531919 -10.5745 -6.11696
RightShoulder  0 2.42657e-020 1.07489e-018
RightArm  0.202745 6.18807 91.7513
RightForeArm  51.3975 27.5242 5.2391
RightHand  -0.660485 26.7878 -2.40376
LeftUpLeg  -4.71622 22.0713 3.35848
LeftLeg  17.478 0.834867 0.202947
LeftFoot  -4.1612 -0.0162243 -0.446597
LeftToes  -21.6361 2.37847e-007 4.89147e-008
87
root  4.04458 32.1612 1.20498 -174.862 28.0271 175.565
RightUpLeg  -33.5388 -22.7051 -13.4342
RightLeg  20.584 -7.58851 -2.29768
RightFoot  -1.12029 0.000564711 0.435581
RightToes  -30.3069 -0.14604 -0.254093
Spine  8.36907 -3.63111 -0.175689
Spine1  14.8113 -7.77282 -1.22722
HEad  23.2084 -29.9677 25.1589
LeftShoulder1  0 -2.42657e-020 -4.95415e-022
LeftArm  -16.1902 -10.3296 -89.8192
LeftForeArm  54.6132 -20.2251 -3.68436
LeftHand  0.496437 -10.2873 -5.88466
RightShoulder  0 2.42657e-020 1.07489e-018
RightArm  -0.569199 6.92521 91.172
RightForeArm  49.4764 28.1783 5.39103
RightHand  -0.672582 26.5909 -2.47624
LeftUpLeg  -4.32681 22.2007 4.06976
LeftLeg  18.1195 2.08592 0.534773
LeftFoot  -4.51004 -0.023533 -0.597622
LeftToes  -23.3253 2.37847e-007 4.89147e-008
88
root  4.96997 31.8925 1.09068 -174.591 29.6222 174.928
RightUpLeg  -35.8963 -24.848 -11.8203
RightLeg  21.2253 -8.71925 -2.74328
RightFoot  -2.18228 0.00447021 0.612447
RightToes  -28.2848 -0.13229 -0.23987
Spine  8.64693 -3.68362 0.0307153
Spine1  15.2896 -7.9826 -0.847614
HEad  23.1993 -29.0496 24.9156
LeftShoulder1  0 -2.42657e-020 -4.95415e-022
LeftArm  -17.2776 -10.8426 -90.1805
LeftForeArm  53.7732 -19.9953 -3.64004
LeftHand  0.496768 -10.0824 -6.00099
RightShoulder  0 2.42657e-020 1.07489e-018
RightArm  -2.09835 7.82998 90.7346
RightForeArm  47.679 28.5773 5.48561
RightHand  -0.693895 26.2739 -2.60312
LeftUpLeg  -3.99669 22.7382 4.89053
LeftLeg  18.866 3.0091 0.814015
LeftFoot  -4.8018 -0.0307718 -0.733915
LeftToes  -25.2893 2.37847e-007 4.89147e-008
89
root  5.97879 31.5951 1.02329 -173.652 31.3721 174.65
RightUpLeg  -38.619 -24.8964 -9.73999
RightLeg  23.1896 -10.115 -3.56013
RightFoot  -0.476818 -0.000306415 0.304355
RightToes  -27.5783 -0.127605 -0.234787
Spine  8.75843 -3.66798 0.409574
Spine1  15.4153 -8.09142 -0.0964504
HEad  23.24 -27.7417 24.2125
LeftShoulder1  0 -2.42657e-020 -4.95415e-022
LeftArm  -18.1534 -11.1059 -90.6921
LeftForeArm  52.7249 -19.586 -3.56054
LeftHand  0.512597 -9.94598 -6.26014
RightShoulder  0 2.42657e-020 1.07489e-018
RightArm  -4.6897 8.60417 90.4207
RightForeArm  46.3553 28.7422 5.52581
RightHand  -0.575809 26.1617 -2.10826
LeftUpLeg  -4.27961 23.0935 5.92837
LeftLeg  19.9323 4.27722 1.24304
LeftFoot  -4.97178 -0.0392356 -0.903739
LeftToes  -28.0829 2.37847e-007 4.89147e-008
90
root  7.05409 31.2749 1.02691 -172.163 33.5759 175.017
RightUpLeg  -41.6815 -22.0592 -8.06286
RightLeg  25.5354 -9.19555 -3.66897
RightFoot  7.46732 0.101431 -1.17657
RightToes  -31.4836 -0.154269 -0.262144
Spine  8.98494 -3.41906 0.957299
Spine1  15.6718 -7.77982 0.933029
HEad  22.9495 -25.8618 23.26
LeftShoulder1  0 -2.42657e-020 -4.95415e-022
LeftArm  -19.7061 -11.3782 -91.4043
LeftForeArm  52.1433 -19.4054 -3.52578
LeftHand  0.565874 -10.0052 -6.83245
RightShoulder  0 2.42657e-020 1.07489e-018
RightArm  -7.71092 9.78436 90.1909
RightForeArm  44.4305 28.4691 5.46594
RightHand  -0.709397 25.4815 -2.76735
LeftUpLeg  -5.28614 23.1993 7.40622
LeftLeg  22.2457 6.30257 2.10877
LeftFoot  -5.42942 -0.057692 -1.21668
LeftToes  -30.2622 2.37847e-007 4.89147e-008
91
root  8.18635 30.969 1.10826 -169.878 36.6976 176.599
RightUpLeg  -45.8438 -18.1708 -5.44499
RightLeg  30.234 -6.64097 -3.31463
RightFoot  10.5044 0.156368 -1.32326
RightToes  -32.8221 -0.16383 -0.271094
Spine  9.51863 -2.77668 1.80892
Spine1  16.4942 -6.69285 2.4064
HEad  22.0203 -23.1246 21.8473
LeftShoulder1  0 -2.42657e-020 -4.95415e-022
LeftArm  -21.9511 -12.1848 -92.6536
LeftForeArm  51.893 -19.1632 -3.47833
LeftHand  0.548679 -9.81402 -6.759
RightShoulder  0 2.42657e-020 1.07489e-018
RightArm  -11.028 12.0353 89.7212
RightForeArm  41.4501 27.6976 5.2943
RightHand  -0.745883 24.454 -3.07178
LeftUpLeg  -6.46111 25.0014 10.0761
LeftLeg  25.5762 7.65141 3.05987
LeftFoot  -5.55871 -0.0722944 -1.48909
LeftToes  -33.5857 2.37847e-007 4.89147e-008
92
root  9.3148 30.6729 1.16169 -168.173 39.0757 178.244
RightUpLeg  -49.4545 -17.6527 -1.88338
RightLeg  35.7314 -4.27141 -2.68448
RightFoot  9.93676 0.110162 -0.889547
RightToes  -32.7792 -0.16352 -0.270811
Spine  10.6167 -2.342 2.71334
Spine1  18.3939 -5.89122 3.38737
HEad  21.6208 -20.1349 20.8923
LeftShoulder1  0 -2.42657e-020 -4.95415e-022
LeftArm  -23.3346 -13.5984 -93.5202
LeftForeArm  50.767 -19.2007 -3.48777
LeftHand  0.487386 -9.24449 -6.39757
RightShoulder  0 2.42657e-020 1.07489e-018
RightArm  -13.7211 15.7894 89.3707
RightForeArm  38.2526 25.9715 4.91384
RightHand  -0.63056 23.4713 -2.66536
LeftUpLeg  -7.58757 25.7813 12.8734
LeftLeg  30.2224 8.99929 4.46362
LeftFoot  -5.4305 -0.0842035 -1.77535
LeftToes  -34.6425 2.37847e-007 4.89147e-008
93
root  10.2824 30.4394 1.22813 -167.209 41.0909 178.702
RightUpLeg  -52.503 -18.3174 1.20945
RightLeg  40.0146 -1.7692 -1.32306
RightFoot  7.37441 0.0460374 -0.336801
RightToes  -29.6223 -0.141329 -0.249332
Spine  12.0847 -2.0774 3.20081
Spine1  20.9192 -5.26624 3.10721
HEad  21.9788 -17.4003 21.0625
LeftShoulder1  0 -2.42657e-020 -4.95415e-022
LeftArm  -24.2505 -16.1363 -93.5541
LeftForeArm  49.7053 -19.0849 -3.46676
LeftHand  0.470367 -9.28893 -6.15952
RightShoulder  0 2.42657e-020 1.07489e-018
RightArm  -16.3366 20.6723 89.8852
RightForeArm  37.3717 23.4997 4.38422
RightHand  -0.656637 22.363 -2.95181
LeftUpLeg  -10.138 24.283 13.6655
LeftLeg  36.6571 11.8184 7.56448
LeftFoot  -5.22953 -0.103022 -2.25561
LeftToes  -28.1151 2.37847e-007 4.89147e-008
